<svg version="1.1" xmlns="http://www.w3.org/2000/svg" xmlns:xlink="http://www.w3.org/1999/xlink" width="269.97968" height="270.04141" viewBox="0,0,269.97968,270.04141"><g transform="translate(-105.01017,-44.97933)"><g data-paper-data="{&quot;isPaintingLayer&quot;:true}" fill-rule="nonzero" stroke-linecap="butt" stroke-linejoin="miter" stroke-miterlimit="10" stroke-dasharray="" stroke-dashoffset="0" style="mix-blend-mode: normal"><path d="M105.01019,274.73803c0,-57.56811 0,-159.90273 0,-191.4099c0,-18.17259 20.03519,-38.3488 38.11481,-38.3488c31.31209,0 132.97484,0 190.75085,0c24.5042,0 41.114,15.59901 41.114,38.85235c0,57.03751 0,160.12803 0,192.02473c0,18.49295 -16.55338,39.16433 -40.96997,39.16433c-57.32888,0 -158.00656,0 -189.54833,0c-18.60843,0 -39.46138,-16.23586 -39.46138,-40.28271z" fill="#4b96ff" stroke="none" stroke-width="0"/><g fill-opacity="0.1129" fill="#ffffff" stroke="none" stroke-width="1"><path d="M158.493,45.05186c-1.45259,5.36606 -4.57384,9.84407 -8.31914,13.89225c-5.69131,6.15159 -12.00163,11.6265 -18.7131,16.64273c-0.74432,0.55632 -1.6629,1.1958 -1.33037,2.25923c0.34505,1.10345 1.46609,1.36243 2.47934,1.28555c4.03327,-0.306 7.55416,-1.89947 10.67106,-4.44533c3.05702,-2.49695 6.34498,-4.68373 9.88889,-6.38196c2.2087,-1.0584 4.69082,-2.02428 7.00221,0.00701c1.31303,1.1539 2.14272,2.62 2.21831,4.37668c0.1964,4.56449 -1.27444,8.41512 -4.35111,11.93327c-5.62972,6.43757 -12.61278,11.09431 -19.75062,15.4972c-5.44238,3.35707 -11.21884,6.18203 -16.91598,9.12331c-4.71797,2.43577 -9.55227,4.57756 -14.40418,6.64222c-0.55838,0.23761 -1.67791,0.70779 -1.67791,0.70779c0,0 -0.02718,-22.88024 -0.03748,-31.54727c-0.00722,-6.07527 3.1098,-17.08518 3.9753,-17.54912c1.06767,-0.57231 2.12637,-1.16273 3.17367,-1.77669c2.02304,-1.18596 4.00349,-2.45969 5.9237,-3.86011c4.9457,-3.60692 9.27019,-7.87447 13.92991,-11.77142c1.64642,-1.3769 8.70388,-4.97377 10.74185,-4.99128c5.12796,-0.04406 10.26682,-0.04406 15.49567,-0.04406z"/><path d="M226.35243,45.05186c-0.14171,2.5369 -2.07755,4.24943 -3.15876,6.39988c-1.61666,3.21534 -3.82474,6.12444 -5.30729,9.43055c-1.1867,2.64646 0.03984,4.45891 2.94969,4.40153c0.4954,-0.00977 1.0109,-0.04127 1.48003,-0.18429c5.31643,-1.62074 10.53222,-3.47628 15.45654,-6.11682c3.51862,-1.88679 7.12949,-3.60707 10.74167,-5.31162c1.90867,-0.90066 3.39918,-2.46482 5.54324,-3.02873c4.88792,-1.28557 6.73235,0.36474 5.551,5.21972c-0.19002,0.78086 -0.51182,1.53593 -0.83012,2.2783c-2.45207,5.71851 -6.17324,10.56996 -10.17411,15.28023c-4.08604,4.81051 -8.86343,8.78248 -13.85506,12.57788c-5.33991,4.06021 -11.50476,6.39793 -17.63349,8.83269c-1.51039,0.60003 -3.13082,0.80279 -4.77123,0.84386c-3.17867,0.07959 -6.35318,-0.08428 -9.54006,0.19922c-3.59364,0.31969 -6.83462,-2.98112 -7.01613,-6.74587c-0.17091,-3.54529 1.36231,-6.63907 2.38617,-9.90049c1.36683,-4.3539 3.31729,-8.54138 3.30166,-13.31577c-0.01719,-5.249 -3.13885,-5.97739 -6.91629,-4.73779c-3.6577,1.20031 -7.35819,2.30714 -10.98517,3.6407c-3.16348,1.16315 -6.55805,0.91133 -9.34768,-1.43577c-1.90497,-1.60278 -1.96756,-3.71897 -1.39013,-6.00035c0.77298,-3.05398 2.77046,-5.20845 4.91171,-7.34393c1.53382,-1.52969 3.36691,-2.79521 4.50367,-4.86033c14.66548,-0.12277 29.29498,-0.12278 44.10017,-0.12278z"/><path d="M312.58261,45.05186c0.1086,0.98555 -0.45326,1.53079 -1.40574,1.46281c-6.98467,-0.49844 -9.97572,3.9037 -12.34198,9.54956c-2.14143,5.10945 -3.88234,10.44526 -6.75927,15.19139c-2.81718,4.64755 -7.01374,7.8889 -12.18423,9.73541c-4.17831,1.49217 -8.41314,2.9 -12.85881,3.18157c-3.02828,0.19179 -6.1209,0.10299 -9.1269,-0.29616c-2.99036,-0.39709 -3.8924,-3.49249 -1.7005,-5.64213c3.42839,-3.36231 6.81282,-6.73751 9.78691,-10.53017c1.63341,-2.08295 3.15018,-4.26803 4.10096,-6.6611c2.08038,-5.23628 5.7285,-9.46946 8.53877,-14.22956c0.28526,-0.48318 0.66568,-0.90696 0.74326,-1.62788c11.02119,-0.13372 22.02649,-0.13371 33.20753,-0.13371z"/><path d="M303.56118,314.98986c0.46423,-1.74437 1.90555,-2.97364 3.03195,-4.30302c2.43698,-2.87612 4.28812,-6.12054 6.49871,-9.12686c4.18651,-5.69357 9.94769,-9.10962 16.54312,-11.26735c2.62513,-0.85877 5.3304,-1.28652 8.10529,-1.16371c0.31173,0.0138 0.62663,0.01494 0.93383,0.06227c1.56504,0.24102 3.30758,0.46955 3.84117,2.18552c0.49421,1.58914 -0.64454,2.87023 -1.69279,3.94362c-3.2658,3.34409 -6.6017,6.61962 -9.887,9.94487c-0.72309,0.73184 -1.91503,1.48986 -1.36408,2.62899c0.60015,1.2409 1.99948,0.7413 3.05598,0.58144c2.40635,-0.36414 4.63436,-1.15465 6.86737,-2.25961c6.26344,-3.09936 12.29233,-6.65647 18.68134,-9.50635c2.66998,-1.19101 4.10087,-0.30832 4.07774,2.58861c-0.01238,1.55061 -0.4531,2.95947 -1.28271,4.24373c-0.80205,1.2416 -1.55612,2.51854 -2.45944,3.6812c-2.54308,3.27319 -17.75386,7.71391 -23.26994,7.73204c-10.52444,0.0346 -21.06467,0.0346 -31.68054,0.0346z"/><path d="M223.3296,314.98986c1.11114,-3.76296 2.21491,-7.62126 4.25429,-11.05763c4.54791,-7.66328 13.06318,-12.42829 22.20342,-11.18383c1.41885,0.19315 2.85928,0.20876 4.16725,0.93308c2.26671,1.2552 2.53929,2.76366 0.86403,4.80514c-1.62318,1.97798 -3.67575,3.34512 -6.00256,4.33947c-1.52366,0.65116 -2.49149,1.81356 -3.13681,3.30631c-0.56615,1.30959 -0.08308,1.78576 1.2249,1.58769c4.80569,-0.72761 9.60278,-1.53366 14.29139,-2.81993c1.90204,-0.52179 3.85388,-0.63098 5.73512,-0.6629c3.77703,-0.06405 7.55197,-0.57914 11.36566,0.13353c3.08217,0.57596 5.64989,1.95671 7.96866,3.87023c2.12216,1.75127 1.92047,3.94846 -0.31757,5.54454c-0.36393,0.25955 -0.69646,0.52573 -0.89258,1.08211c-20.5432,0.12219 -41.04633,0.12219 -61.72518,0.12219z"/><path d="M147.97189,314.98986c0.76532,-2.32502 3.13284,-3.12398 4.87817,-4.53053c4.54474,-3.66262 9.12299,-7.30761 14.14072,-10.33709c5.11033,-3.08539 10.06998,-6.5025 16.03698,-7.78967c2.61991,-0.56514 3.34819,0.41646 2.41522,2.95066c-0.92058,2.50058 -2.54128,4.46895 -4.38519,6.36723c-1.32244,1.36138 -2.24942,3.11132 -3.32004,4.70988c-0.28911,0.43167 -0.35823,0.95571 0.05308,1.38293c0.41599,0.43205 0.94729,0.27051 1.412,0.1292c2.86415,-0.87067 5.72735,-1.74586 8.57687,-2.66293c5.08736,-1.63727 10.21842,-2.63986 15.61678,-1.83654c4.22859,0.62923 6.85586,4.34098 5.88787,8.72082c-0.18927,0.85632 -0.40838,1.69698 -0.37738,2.73831c-20.25301,0.15774 -40.50619,0.15774 -60.93509,0.15774z"/><path d=""/><path d=""/><path d="M130.31526,219.48704c-3.42611,6.95775 -6.21565,14.04712 -9.59556,20.87538c-2.44866,4.94692 -0.88083,7.07321 4.61309,7.16924c2.38796,0.04172 4.74917,-0.21325 7.08902,-0.50702c4.46715,-0.56086 8.08545,0.83774 11.06752,4.11444c0.68887,0.75692 1.12271,1.61736 1.33431,2.63361c1.0233,4.91511 -0.03136,9.49221 -2.06278,13.96763c-2.04657,4.50888 -5.41059,8.0465 -8.47708,11.8037c-2.11717,2.59403 -5.1016,4.1889 -7.62513,6.32108c-3.79585,3.20718 -6.55003,5.55606 -10.52145,8.55304c-0.10771,0.08128 -4.21536,1.59119 -4.32296,1.67258c-2.8884,-0.88816 -7.60567,-18.05703 -6.18975,-19.93489c0.50167,-0.66532 2.25675,-3.18265 1.77936,-3.98517c-0.50525,-0.84939 -2.20412,-0.61285 -2.20412,-0.61285l0.13813,-63.13697c0,0 0.89836,-0.62202 1.34792,-0.93247c2.6881,-1.85631 5.3859,-3.69817 8.10699,-5.50555c3.63764,-2.41616 7.41111,-4.57907 11.73293,-5.61016c1.72471,-0.41148 3.38038,-0.04684 4.99836,0.31567c1.37427,0.30792 2.04339,1.51292 2.37944,2.87724c0.8314,3.37535 0.49641,6.72563 -0.50475,9.96077c-1.01344,3.27489 -1.68225,6.65804 -3.08351,9.9607z"/><path d="M118.84411,137.94432c-3.20059,2.75469 -6.65053,5.05496 -8.97578,8.53326c-0.50183,0.75065 -0.90701,1.58944 -0.44458,2.45049c0.47774,0.88959 1.33779,0.37354 2.03642,0.30013c2.56781,-0.26979 4.8152,-1.71898 7.38928,-2.00661c2.18917,-0.24462 4.30407,-0.41396 6.38781,0.68553c2.78771,1.47092 3.86503,3.83029 4.22011,6.80325c0.28412,2.37881 0.01277,4.72538 -0.04529,7.08456c-0.04338,1.76218 -0.5093,3.41742 -1.23951,5.04943c-1.57874,3.52848 -3.21498,7.0698 -5.51938,10.13412c-2.42503,3.22474 -5.27209,6.24145 -8.56013,8.5799c-2.64765,1.88299 -5.071,4.03528 -7.74044,5.87813c-0.29384,0.20285 -0.88134,0.60882 -0.88134,0.60882l-0.0244,-66.20701c0,0 1.20319,-0.54562 1.80823,-0.80973c6.17069,-2.6936 12.56978,-4.8111 18.87132,-7.18206c3.22941,-1.21506 6.31147,-2.60789 9.90084,-2.35957c1.95047,0.13495 3.96249,0.11362 4.74858,2.19281c0.80141,2.11972 0.19054,4.22636 -1.29006,5.94158c-2.57277,2.98046 -6.00623,4.82193 -9.29668,6.85335c-3.81524,2.35538 -7.79833,4.45991 -11.345,7.46964z"/><path d="M204.00307,247.4924c5.0268,-4.20127 9.79483,-8.49469 14.58022,-12.77188c3.80326,-3.39936 7.97925,-6.37804 11.86556,-9.68927c3.33139,-2.83839 6.86213,-5.40164 10.46327,-7.85435c4.88037,-3.32398 9.78429,-6.61921 15.04869,-9.35072c3.64897,-1.89332 7.4172,-3.52676 11.07648,-5.37885c2.93554,-1.48579 6.07059,-1.74398 9.19617,-2.14694c1.5362,-0.19804 3.12338,-0.11492 4.67951,-0.02332c5.81254,0.34221 7.23497,3.59963 6.0393,8.27953c-0.63134,2.4711 -1.77639,4.80436 -3.82429,6.53874c-1.20335,1.01908 -1.81621,2.50578 -2.8682,3.67716c-3.2174,3.58258 -7.3374,5.98868 -11.13853,8.79841c-5.72634,4.23275 -11.19803,8.73366 -15.90885,14.09518c-1.24403,1.41588 -2.08648,3.11764 -2.64041,4.91079c-0.45426,1.47047 0.69637,2.05418 1.79269,2.30745c1.20673,0.27874 2.47553,0.19638 3.71393,-0.09604c5.78718,-1.36648 11.4042,-3.36729 16.61886,-6.10541c3.79504,-1.99271 7.70914,-3.77644 11.44464,-5.91841c3.76898,-2.16118 7.89475,-3.70425 11.88103,-5.4803c1.58353,-0.70554 3.12824,-1.48257 4.94592,-1.58339c1.95722,-0.10856 2.88639,0.74565 2.75399,2.73156c-0.10091,1.51367 -1.01418,2.69652 -1.6384,3.93897c-2.36627,4.70968 -5.39964,8.87716 -9.63172,12.22899c-3.27123,2.59083 -6.54496,5.2329 -10.03587,7.43332c-5.73836,3.61705 -11.62876,7.02669 -17.78319,9.9676c-3.9376,1.88162 -7.89788,3.71232 -11.8911,5.45725c-7.2,3.14621 -14.69143,5.47221 -22.24381,7.63306c-2.69877,0.7722 -5.26469,1.3692 -8.05498,0.60082c-1.66638,-0.45887 -2.1714,-1.33902 -1.53679,-2.8778c1.10265,-2.6736 3.19522,-4.62723 5.26456,-6.46427c2.24555,-1.99347 4.1491,-4.31146 6.41409,-6.27195c0.59511,-0.51515 1.24395,-1.25574 0.71454,-2.11847c-0.50821,-0.82811 -1.47807,-0.6832 -2.22573,-0.44543c-3.32498,1.0574 -6.62262,2.20083 -9.93044,3.31224c-7.44201,2.50047 -14.35253,6.36834 -21.94161,8.50018c-2.28484,0.64186 -4.18645,2.21355 -6.51152,2.82529c-6.08218,1.60027 -11.84948,4.36515 -18.10758,5.2423c-2.99787,0.42017 -6.22835,1.08976 -9.02794,-1.06372c-2.98568,-2.29665 -3.0534,-5.40479 -0.23174,-7.86534c1.24679,-1.08722 2.69617,-1.78468 4.10609,-2.57984c4.82729,-2.72256 9.70925,-5.356 14.44658,-8.22764c3.2456,-1.96738 6.49764,-3.94623 9.51394,-6.28761c3.44431,-2.6736 6.99395,-5.21154 10.61266,-7.87784z"/><path d="M155.73532,212.26758c-2.54587,0.28877 -4.91182,0.24107 -7.24452,-0.23074c-2.43794,-0.4931 -3.08006,-2.21922 -2.15548,-4.49175c1.15545,-2.83997 3.51671,-4.44702 5.68568,-6.29765c6.34094,-5.41021 14.01988,-7.62043 21.94843,-9.30504c1.87461,-0.39831 3.70489,-1.09398 5.54945,-1.63308c2.7334,-0.79889 5.5763,-1.22619 8.22809,-2.34295c3.7824,-1.59294 7.54991,-3.15877 10.89778,-5.65207c2.01857,-1.50331 3.72479,-3.29933 5.6049,-4.9247c2.28257,-1.97328 3.64665,-4.70361 5.84153,-6.77062c1.93511,-1.82239 3.87115,-3.6744 5.71058,-5.56543c1.62347,-1.66902 3.55935,-2.8821 5.15095,-4.4958c1.88711,-1.91332 4.15733,-3.13914 6.50045,-4.28001c3.57915,-1.74269 7.00915,-3.79248 10.84381,-5.01025c4.2862,-1.36116 8.6975,-1.78692 13.12708,-1.6754c2.06205,0.05192 4.18195,0.65149 6.04506,1.76419c1.61838,0.96654 1.97553,2.04902 1.17344,3.78244c-1.22206,2.64097 -3.40098,4.47549 -5.61861,6.17144c-5.28408,4.041 -10.82701,7.7239 -16.3347,11.45447c-4.59051,3.10932 -9.26649,6.12819 -13.60513,9.56515c-6.40369,5.07283 -12.466,10.55506 -16.89003,17.5654c-0.41429,0.65649 -1.20213,1.39978 -0.55972,2.17426c0.68508,0.82592 1.65766,0.34983 2.4047,-0.08318c4.25875,-2.46853 8.60063,-4.79464 12.68981,-7.55459c1.79738,-1.21313 3.63498,-2.4512 5.61975,-3.28326c3.34603,-1.40273 6.26011,-3.54407 9.4932,-5.13335c5.84897,-2.87518 11.95712,-4.58045 18.47984,-4.88187c2.34345,-0.10827 4.5959,0.39432 6.86911,0.70823c2.27957,0.31478 2.78666,2.06452 1.4556,3.92972c-2.02749,2.84112 -5.08623,4.35654 -7.79793,6.32849c-4.44001,3.22875 -9.31082,5.75817 -14.01122,8.55136c-4.70535,2.79612 -9.26281,5.82737 -14.01493,8.55315c-3.66171,2.10032 -6.8868,4.91648 -10.51242,7.11913c-4.21693,2.56187 -8.01728,5.71165 -11.87864,8.75388c-2.98075,2.34844 -5.73415,4.99082 -8.53559,7.56034c-6.43929,5.90617 -12.99286,11.66842 -21.1278,15.17637c-1.67504,0.7223 -3.53933,1.19742 -5.4443,1.18744c-2.56287,-0.01338 -3.52821,-0.80156 -3.83599,-3.34309c-0.47028,-3.8833 0.36986,-7.45233 2.08385,-11.0146c1.64613,-3.42119 3.59456,-6.65558 5.33965,-10.0089c0.69289,-1.33144 1.37906,-2.63951 2.36796,-3.79842c1.68975,-1.98021 2.71964,-4.40787 4.306,-6.48356c1.31277,-1.71773 0.67227,-2.98359 -1.49354,-3.13125c-2.73774,-0.18663 -5.48665,-0.12081 -8.23527,0.028c-4.65473,0.252 -9.24379,1.39275 -14.12088,1.01809z"/><path d="M164.77444,143.7741c-4.0403,2.2655 -7.8716,4.61485 -11.92602,6.58348c-2.43985,1.18467 -4.9701,1.99504 -7.55023,2.75017c-1.71945,0.50322 -3.36891,0.13591 -4.99325,-0.22118c-1.23151,-0.27077 -1.66531,-1.43163 -1.82272,-2.59392c-0.20969,-1.54835 0.21893,-3.01955 0.96702,-4.3245c3.47707,-6.06538 8.18326,-10.98781 13.5691,-15.46543c6.45122,-5.36334 13.91785,-8.78013 21.40729,-12.14021c4.57928,-2.05445 9.26051,-3.97238 14.11906,-5.4129c3.8729,-1.14827 7.55363,-2.94732 11.42974,-4.08114c3.63175,-1.06233 7.35759,-1.95407 11.14277,-2.28152c2.58659,-0.22377 5.17454,-0.76292 7.82406,-0.13117c3.70076,0.88242 5.48909,3.88067 4.23378,7.4919c-0.73195,2.10576 -1.50867,4.19608 -2.27813,6.2886c-0.21839,0.59393 -0.53624,1.21432 0.05903,1.72375c0.55704,0.4767 1.18728,0.19895 1.76663,-0.04651c4.06847,-1.72389 7.51775,-4.43842 11.01623,-7.03948c9.3255,-6.93339 18.79012,-13.63542 29.19848,-18.89331c4.50399,-2.27526 9.1424,-3.95817 14.29032,-3.85359c2.22854,0.04528 3.64651,1.8097 3.40032,4.20016c-0.22379,2.1732 -1.45387,3.8773 -2.61347,5.52236c-3.09286,4.38769 -6.66994,8.39447 -10.71528,11.92834c-1.36664,1.19383 -2.64551,2.48069 -3.884,3.76715c-4.31135,4.47825 -9.31415,8.14809 -14.35121,11.63465c-7.15282,4.95104 -14.28206,10.02746 -22.42083,13.43252c-4.01838,1.68117 -7.86468,3.71312 -12.10704,4.90199c-5.67234,1.5896 -10.03276,0.0351 -13.1199,-4.98065c-1.14593,-1.86185 -2.28528,-3.7177 -3.24192,-5.68763c-1.60636,-3.30781 -4.26066,-4.94074 -7.95838,-4.80697c-2.63653,0.09538 -5.23506,0.39507 -7.62848,1.62457c-3.82966,1.96728 -7.70792,3.84935 -11.45715,5.96015c-2.15645,1.21408 -4.01926,2.92817 -6.35582,4.15034z"/><path d="M322.88408,221.25861c-3.22849,3.07142 -6.92196,5.08733 -10.97221,6.51805c-1.60352,0.56644 -3.23714,0.99711 -4.51562,-0.45871c-1.18383,-1.34799 -1.0763,-2.9051 -0.30242,-4.53299c3.11125,-6.54463 6.87529,-12.72192 10.40722,-19.0342c2.84909,-5.09192 5.56408,-10.33764 7.08458,-16.05839c0.11097,-0.41751 0.13657,-0.86334 0.15785,-1.29816c0.16015,-3.27303 -1.24834,-4.27368 -4.37053,-3.01562c-4.34778,1.75188 -8.33193,4.20609 -12.2104,6.78478c-4.13421,2.74872 -8.53734,4.84654 -13.24523,6.33561c-1.80763,0.57172 -3.85291,-1.86536 -3.30395,-4.01863c0.30457,-1.1947 0.83968,-2.36061 1.44275,-3.44384c2.08065,-3.73747 3.7434,-7.6606 6.07489,-11.31343c4.74754,-7.43819 10.79914,-13.67479 16.93355,-19.84728c3.99817,-4.02302 8.45888,-7.57922 13.70193,-9.96817c3.49917,-1.59437 6.96995,-2.28051 10.4873,0.07754c0.92124,0.61759 1.54052,1.29572 2.09944,2.25141c2.70586,4.62658 3.26837,9.58642 2.70763,14.80372c-0.17931,1.66837 -0.14015,3.37614 -0.03776,5.05593c0.31248,5.12454 -1.07175,9.96189 -2.10035,14.90919c-1.37552,6.61584 -4.03312,12.68498 -7.00027,18.62394c-2.87851,5.76152 -6.68756,10.95794 -11.14101,15.64775c-0.59942,0.63121 -1.19231,1.26862 -1.89736,1.9815z"/><path d="M304.45574,126.36776c-1.5734,2.25074 -2.98806,4.44597 -4.07029,6.83567c-0.29464,0.65067 -0.46098,1.32166 0.06638,1.93638c0.61511,0.71697 1.29278,0.27942 1.87176,-0.02075c3.03828,-1.57514 6.09255,-3.12607 9.06478,-4.81965c2.00423,-1.142 3.81726,-2.62897 6.34628,-2.39355c1.12975,0.10518 1.74004,0.56912 1.75441,1.72935c0.01544,1.24794 -0.01266,2.46251 -0.40229,3.69532c-2.08078,6.58345 -6.05036,11.99091 -10.60132,17.00445c-4.93045,5.4316 -10.57668,10.04489 -16.81952,13.89856c-5.40976,3.33939 -10.89445,6.56082 -17.15794,8.0803c-1.56968,0.38082 -3.18162,0.64279 -4.82419,0.58612c-2.3141,-0.07984 -3.31279,-1.38887 -2.50135,-3.60235c0.92714,-2.52916 2.20385,-4.89324 4.10893,-6.85447c1.91324,-1.96965 3.96415,-3.8075 5.62895,-6.01313c0.64491,-0.85442 1.26454,-1.70665 1.53852,-2.76014c0.71495,-2.74925 0.15901,-3.88466 -2.46038,-4.98704c-0.86359,-0.36346 -1.72416,-0.74329 -2.61149,-1.03961c-4.20229,-1.40327 -5.28854,-4.27912 -3.41938,-8.3061c2.80048,-6.0334 6.86511,-11.06711 11.39227,-15.87855c3.30759,-3.51531 6.82256,-6.78684 10.62232,-9.67032c6.36329,-4.82891 13.03177,-9.27533 20.76695,-11.70472c2.71721,-0.8534 5.55922,-0.89878 8.29618,-0.0007c4.26202,1.39848 5.53394,6.79148 2.48079,10.01801c-1.865,1.97089 -4.09527,3.42151 -6.31679,4.92941c-4.3225,2.93397 -8.91603,5.50805 -12.75359,9.33751z"/><path d="M367.06786,69.15861c0.22748,2.12247 -0.09684,4.06876 -0.44162,5.94283c-1.16387,6.32618 2.16152,8.73112 7.33919,10.02945c0.28024,0.07027 0.84134,0.2089 0.84134,0.2089l-0.04924,20.8251c0,0 -0.59769,0.48457 -0.89568,0.72797c-1.4818,1.21034 -2.95527,2.43112 -4.50668,3.54437c-2.37592,1.7049 -5.0119,3.05155 -7.36012,4.78995c-4.49666,3.32881 -9.61268,5.52689 -14.48399,8.16168c-2.84396,1.53825 -5.91981,2.66004 -9.19484,2.97921c-2.39907,0.23381 -3.26881,-0.89633 -2.4388,-3.1697c0.40544,-1.11057 0.85147,-2.24686 1.50579,-3.21893c2.64657,-3.93173 4.97676,-8.06479 7.41254,-12.11527c3.33176,-5.54041 6.65235,-11.1647 8.53916,-17.43156c0.40519,-1.34583 0.47214,-2.83719 0.44397,-4.25653c-0.02428,-1.22413 -0.67831,-2.21182 -1.87338,-2.81699c-2.56291,-1.29787 -5.27875,-1.90649 -8.1274,-1.9288c-5.8041,-0.04546 -11.61176,0.11647 -17.40615,-0.3881c-1.56389,-0.13618 -3.11462,-0.34913 -4.56106,-0.96842c-1.85095,-0.79247 -2.1815,-2.07866 -1.52269,-3.96541c0.96114,-2.75272 3.02133,-4.51455 5.14333,-6.2505c4.15197,-3.39657 8.40185,-6.69388 13.06299,-9.34179c2.40729,-1.36754 4.98651,-2.56868 7.74561,-3.21316c2.54566,-0.59462 5.08127,-1.0162 7.73397,-1.08407c3.22155,-0.08241 6.12,0.62146 8.64448,2.47165c2.47321,1.81261 3.5896,4.54381 4.10103,7.51074c0.15864,0.92049 0.22354,1.85714 0.34825,2.95739z"/><path d="M374.66652,273.62196c0,0 -0.72545,0.30989 -1.09059,0.45787c-1.44244,0.58458 -2.91201,1.0929 -4.43374,1.47989c-3.87985,0.98669 -7.80282,1.62305 -11.82087,1.53209c-0.1862,-0.00421 -0.38402,-0.01132 -0.55527,-0.07446c-0.91541,-0.33729 -2.16859,-0.34553 -2.49495,-1.40499c-0.36727,-1.19218 0.65871,-1.96333 1.48504,-2.5933c3.07965,-2.34782 6.26021,-4.56389 9.60083,-6.52118c2.8902,-1.69343 4.98699,-4.31984 7.66368,-6.25457c0.38515,-0.27839 0.7734,-0.77128 0.56407,-1.29564c-0.28855,-0.72271 -0.94209,-0.33105 -1.47314,-0.33891c-6.66502,-0.09883 -13.30727,1.02877 -19.99655,0.18803c-3.65081,-0.45889 -6.7566,-3.95267 -6.32679,-8.08972c0.33542,-3.22814 1.57722,-6.09114 3.30595,-8.8099c2.54845,-4.00785 6.13696,-6.97782 9.76096,-9.89184c2.1199,-1.70457 4.3339,-3.33063 7.13348,-3.8996c0.89011,-0.18091 1.72662,-0.722 2.536,-1.18797c1.6242,-0.93506 3.30193,-1.63872 5.0181,-2.16754c0.36428,-0.11225 1.09788,-0.31365 1.09788,-0.31365z"/><path d="M373.40476,178.14776c-0.09778,0.46005 -0.1822,0.7636 -0.21581,1.07268c-0.22362,2.05758 0.01025,3.39065 0.78326,4.10222c0.17828,0.16411 0.62187,0.39442 0.62187,0.39442l0.01835,29.79678c0,0 -0.4078,-0.29432 -0.58807,-0.47237c-1.00946,-0.99704 -1.49874,-2.60353 -1.02542,-4.20752c0.42939,-1.4552 0.92798,-2.89024 1.44424,-4.3198c0.3927,-1.0874 0.27789,-5.58068 0.27789,-5.58068c0,0 -0.56394,0.04931 -0.85291,0.10664c-2.64976,0.52579 -4.68908,2.25857 -6.94664,3.54556c-2.20964,1.25967 -4.16717,2.9523 -6.74756,3.54483c-2.62698,0.60324 -4.4969,-0.71193 -5.8213,-3.1934c-2.15625,-4.04014 -1.4031,-8.29569 -0.98762,-12.46818c0.66289,-6.65724 2.19885,-13.14486 4.79688,-19.33974c2.66429,-6.35286 6.9065,-11.53052 12.27348,-15.74679c1.08178,-0.84985 2.24514,-1.54575 3.48056,-1.9126c0.27389,-0.08133 0.83221,-0.19357 0.83221,-0.19357l0.12804,21.02318c0,0 -0.31361,0.72975 -0.46397,1.0987c-0.3659,0.89783 -0.70501,1.81253 -1.00744,2.74962z"/><path d="M316.07527,280.45525c-2.94353,2.44687 -6.2439,4.05922 -9.49719,5.71308c-8.51207,4.32718 -17.58941,6.0863 -27.10244,5.55442c-2.86135,-0.15997 -5.7994,-0.19899 -8.543,-0.90906c-3.72094,-0.96303 -7.42075,-2.31536 -9.89945,-5.59245c-1.25245,-1.65587 -1.01081,-2.81779 0.82411,-3.81223c3.59644,-1.9491 7.66708,-2.53918 11.48334,-3.86536c0.58704,-0.204 1.23614,-0.27508 1.77718,-0.55888c5.45288,-2.86007 11.4314,-4.66812 16.58528,-8.10445c5.37797,-3.58578 10.65364,-7.2748 14.91681,-12.289c3.02096,-3.55317 6.48275,-6.73559 9.79519,-10.0359c4.15476,-4.13959 9.2548,-6.91426 14.33238,-9.69352c1.89513,-1.03733 4.06165,-1.25728 6.18062,-1.30327c1.96771,-0.0427 3.29248,2.5003 2.51025,4.46711c-1.40552,3.53402 -3.56243,6.56115 -6.18212,9.27599c-4.68539,4.85559 -9.79051,9.24872 -14.9032,13.6432c-2.92453,2.51371 -6.02224,4.85424 -8.59226,7.76564c-0.36343,0.41168 -0.80044,0.79967 -0.77775,1.44682c0.57079,0.44482 1.08186,0.04617 1.55845,-0.14796c2.6952,-1.09789 5.51327,-0.94648 8.31929,-0.83267c1.17798,0.04783 2.01931,0.79451 2.33585,1.87654c0.33404,1.14184 0.45903,2.3912 -0.55146,3.3299c-1.46153,1.35773 -2.97579,2.65873 -4.56986,4.07207z"/><path d="M151.75981,168.99294c3.80016,-3.39897 8.39254,-5.07964 12.80778,-7.09064c5.35537,-2.43922 11.04854,-3.65528 16.78493,-4.72536c2.14287,-0.39972 4.26087,-0.9212 6.48447,-0.79946c1.16648,0.06386 2.03986,0.39374 2.67055,1.39088c0.65813,1.04056 -0.06888,1.71653 -0.52495,2.53124c-1.38625,2.47631 -3.64273,4.00885 -5.86433,5.59341c-2.99459,2.13591 -6.01591,4.23472 -9.03457,6.33296c-2.3898,1.6611 -4.86313,3.09183 -7.52779,4.10286c-4.32049,1.63933 -8.29614,4.05212 -12.7097,5.4657c-1.75027,0.56058 -3.55208,0.70641 -5.34452,0.81312c-2.72172,0.16202 -4.0334,-1.3182 -3.7464,-4.06414c0.4288,-4.10249 2.27599,-7.34383 6.00453,-9.55054z"/><path d="M302.33252,98.77431c-3.35095,2.36727 -6.93565,2.21656 -10.46025,1.16874c-1.9451,-0.57825 -2.33774,-3.93475 -1.51466,-6.2443c1.79663,-5.04122 5.75387,-7.63164 10.24187,-9.77175c1.97722,-0.94285 3.93417,-1.94209 6.15528,-2.10982c1.49196,-0.11267 3.15378,-0.28647 4.01394,1.31642c0.87826,1.63649 0.58094,3.32158 -0.1162,5.03144c-1.75223,4.29762 -4.9523,7.42431 -8.31999,10.60928z"/><path d="M152.00582,285.57102c2.13343,1.81462 2.27569,4.15186 0.77708,6.32896c-2.58188,3.75086 -6.36314,5.44478 -10.56736,6.44475c-1.26752,0.30149 -2.69864,0.46945 -3.66528,-0.69076c-0.99731,-1.19701 -0.33727,-2.47486 0.16351,-3.68802c1.67583,-4.05985 4.55641,-6.90764 8.65082,-8.48707c1.48257,-0.57191 3.01418,-0.79865 4.64122,0.09215z"/><path d="M172.31334,98.5664c-0.5766,-0.66877 -1.04678,-1.25064 -1.52362,-1.82699c-1.95202,-2.35936 -1.60753,-6.02481 1.07585,-7.49732c2.69352,-1.47808 5.50912,-2.93286 8.83054,-2.57525c2.83989,0.30576 3.87258,2.0009 2.83593,4.68111c-1.05835,2.73631 -2.52254,5.15 -4.8748,6.95329c-1.99114,1.52643 -4.07387,1.75942 -6.3439,0.26517z"/><path d="M314.62622,52.8081c2.55904,-0.28283 5.69497,1.37234 6.44415,3.66406c0.67026,2.05029 -0.34358,3.79843 -1.69001,5.42901c-2.00061,2.42282 -4.69199,3.41672 -7.58503,4.03617c-2.70499,0.57919 -4.19124,-1.05754 -3.41865,-4.01396c0.96376,-3.68807 2.82056,-6.89176 6.24954,-9.11528z"/><path d="M151.91106,231.3807c-2.18276,1.41107 -4.39102,1.91529 -6.85776,1.49391c-2.2252,-0.3801 -3.28108,-1.4841 -3.24901,-3.74362c0.02061,-1.45131 0.18012,-2.90863 1.03253,-4.11099c1.18601,-1.67297 2.68349,-3.0374 4.91146,-2.92719c2.59449,0.12833 4.15014,1.87999 5.28264,3.94756c1.20785,2.20516 0.83542,3.66965 -1.11986,5.34034z"/><path d="M350.47117,225.33811c-2.25905,-0.25412 -4.55192,0.05398 -5.66631,-2.54899c-1.00527,-2.34807 0.46203,-6.95144 2.83655,-7.92039c1.57473,-0.64259 3.14638,-1.45472 5.00113,-0.48754c0.96833,0.50495 1.78139,1.02952 1.94049,2.06819c0.62851,4.10327 0.50605,7.76082 -4.11186,8.88873z"/><path d="M338.06498,98.88657c-1.64721,0.9026 -3.11087,1.96739 -4.93919,1.9712c-1.50036,0.00313 -3.07522,-0.05747 -3.95472,-1.58765c-0.71843,-1.25001 -0.35047,-4.04998 0.71752,-5.12003c2.08999,-2.09414 4.47118,-3.56899 7.61933,-3.37162c2.15282,0.13497 3.53242,1.71613 3.23842,3.8506c-0.24487,1.77792 -1.12822,3.14649 -2.68135,4.2575z"/><path d="M336.71885,271.8687c-1.7497,0.123 -3.27853,-0.02098 -3.862,-1.78764c-0.60438,-1.82988 0.23871,-3.25956 1.61185,-4.44112c1.79361,-1.54339 3.84035,-2.2567 6.22159,-2.00478c1.88057,0.19891 3.3727,1.43725 3.53658,3.01833c0.22487,2.16944 -0.73912,3.57635 -2.80062,4.18142c-1.49373,0.43838 -2.94007,1.06628 -4.70741,1.03379z"/><path d="M157.94947,109.15654c-1.46159,2.35889 -3.06687,2.95733 -5.3998,2.1058c-2.30787,-0.84239 -3.2487,-2.41363 -2.79909,-4.76344c0.09118,-0.47651 0.23069,-1.03548 0.54807,-1.3617c1.69582,-1.74301 3.84718,-2.7516 6.20899,-2.99955c1.50553,-0.15806 2.60032,0.69249 2.54131,2.49183c-0.05071,1.54613 0.20468,3.14341 -1.09948,4.52706z"/><path d="M202.53309,292.33055c-1.34329,-0.16231 -2.35935,-0.64431 -2.51333,-1.97224c-0.14362,-1.2385 0.60569,-2.04138 1.57863,-2.75194c2.14472,-1.56636 4.60799,-2.46975 7.03037,-3.42555c1.31984,-0.52074 3.01515,-0.85309 4.00993,0.4005c1.12876,1.4225 -0.28423,2.62188 -1.16593,3.5346c-2.38261,2.46646 -5.61096,3.32986 -8.93967,4.21463z"/></g><path d="M142.48126,119.82327l0.0775,-6.28869c0,-4.30687 2.0704,-6.46584 6.21119,-6.37726c4.30687,-0.08857 6.29976,1.99289 5.97868,6.37726c0.08857,1.02966 0,2.94506 -0.155,5.73511h6.05619c7.97158,0 12.20094,5.10402 13.0756,16.18673c0.87466,9.47732 0.55358,17.61497 -0.87466,24.22474c-1.76039,8.06015 -5.65761,12.12344 -11.80236,12.35595c-1.74932,-0.0775 -3.42114,-0.2325 -4.93795,-0.47608c-3.66471,-0.79716 -5.18153,-3.11113 -4.46187,-7.00835c0.70858,-3.50971 2.39147,-5.18153 5.09295,-5.10402c0.71966,0.0775 1.51681,0.155 2.39147,0.0775c1.99289,-0.24358 3.11113,-2.39147 3.43221,-6.53227c0.32108,-4.15186 0.24358,-9.73197 -0.155,-16.74031c0,-3.83079 -1.04073,-4.62794 -5.10402,-4.87152l-3.43221,0.16607c-1.27324,13.38561 -4.78295,27.57945 -7.97158,36.19318c-1.19574,3.10006 -3.74221,4.14079 -7.6505,3.18863c-3.43221,-1.36181 -4.62794,-3.58721 -3.50971,-6.69834c0.87466,-1.51681 2.0704,-5.3476 3.66471,-11.40379c1.59432,-6.05619 2.79005,-12.90953 3.50971,-20.48253c-1.67182,0.2325 -2.86755,0.39858 -3.58721,0.55358c-3.26613,0.56465 -5.01545,-1.42824 -5.18153,-5.97868c0.24358,-3.90829 1.76039,-5.97868 4.70545,-6.29976zM174.27901,109.06164c3.2772,-0.70858 5.66868,0.24358 7.01942,2.87863c3.90829,7.97158 6.45476,15.85458 7.6505,23.59366c0.71966,3.18863 -0.79716,5.18153 -4.46187,6.05619c-3.66471,0.64215 -5.82368,-0.71966 -6.37726,-4.14079c-1.35074,-8.21515 -3.66471,-15.78815 -7.01942,-22.6415c-1.02966,-2.55755 0.08857,-4.46187 3.18863,-5.74618z" fill="#004aad" stroke="#ffffff" stroke-width="14.5"/><path d="M206.16531,108.75163c3.75328,0.2325 5.5026,2.2254 5.4251,5.97868c0,3.10006 -0.0775,8.44766 -0.32108,16.09816c-0.0775,2.63505 -0.2325,6.69834 -0.32108,12.35595c0,4.22937 0.24358,7.573 0.64215,10.20805c0.39858,2.62398 1.19574,3.98579 2.54648,4.14079c1.51681,-0.0775 2.87863,-0.39858 4.22937,-0.95216c2.79005,-1.83789 5.10402,-1.04073 6.93084,2.2254c1.04073,3.66471 -0.0775,6.45476 -3.26613,8.37016c-2.1479,1.91539 -3.74221,2.46897 -8.92374,3.11113c-9.16731,0.71966 -13.71776,-7.32942 -13.71776,-24.15831c0,-16.49674 0.16607,-26.93729 0.56465,-31.39916c0.2325,-3.98579 2.31397,-5.97868 6.21119,-5.97868zM239.33594,109.38271c3.58721,0.0775 5.65761,1.99289 6.37726,5.74618c2.94506,10.44055 5.01545,25.74155 4.69437,42.64794c0,4.38437 -1.99289,6.53227 -5.97868,6.53227c-3.89722,0 -5.81261,-1.83789 -5.73511,-5.5801c0.55358,-16.81782 -0.87466,-26.1512 -3.43221,-38.58465l-1.02966,-5.01545c-0.79716,-3.75328 0.87466,-5.66868 5.10402,-5.74618z" fill="#004aad" stroke="#ffffff" stroke-width="14.5"/><path d="M278.62917,113.446c-0.0775,-0.155 -0.2325,-0.2325 -0.47608,-0.2325h-2.31397c-0.55358,0 -0.87466,0.2325 -1.02966,0.79716l-1.36181,2.94506c-0.0775,0.16607 -0.0775,0.32108 0,0.39858c0.16607,0.16607 0.32108,0.24358 0.47608,0.24358h2.39147c0.56465,0 0.96323,-0.24358 1.11824,-0.64215l1.27324,-2.94506c0,-0.24358 0,-0.47608 -0.0775,-0.56465zM261.33529,165.50484c1.02966,-2.54648 1.82682,-5.5801 2.31397,-9.08981c0.155,-1.02966 0.63108,-1.91539 1.50574,-2.54648c0.56465,-0.39858 1.19574,-0.56465 1.91539,-0.56465c0.39858,0 0.71966,0 0.87466,0.08857c1.19574,0.39858 2.15897,0.95216 2.71255,1.82682c0.56465,0.71966 0.79716,1.51681 0.79716,2.39147c0,0.32108 0,0.56465 -0.0775,0.64215c-0.64215,4.86045 -1.51681,8.69123 -2.71255,11.39271c-0.47608,1.04073 -1.27324,1.68289 -2.39147,1.99289l-1.19574,0.16607c-0.71966,0 -1.35074,-0.24358 -2.0704,-0.64215c-1.04073,-0.47608 -1.67182,-1.27324 -1.91539,-2.46897c-0.155,-0.39858 -0.2325,-0.79716 -0.2325,-1.27324c0,-0.64215 0.155,-1.27324 0.47608,-1.91539zM262.28745,116.72321c2.46897,-4.22937 4.46187,-9.01231 5.90118,-14.43741c0.39858,-1.42824 1.19574,-2.54648 2.31397,-3.26613c1.02966,-0.71966 2.0704,-1.02966 3.02256,-1.02966l0.79716,0.0775c1.36181,0.155 2.48005,0.79716 3.2772,1.99289c0.55358,0.71966 0.79716,1.51681 0.79716,2.46897l-0.16607,1.27324c0,0.0775 0,0.16607 -0.0775,0.24358c-0.0775,0.0775 0,0.155 0.0775,0.39858c0.0775,0.0775 0.16607,0.155 0.39858,0.155h4.55044c0.2325,0 0.31001,0 0.39858,-0.0775c0.55358,-0.0775 0.87466,-0.155 1.10716,-0.155c0.71966,0 1.36181,0.2325 1.91539,0.63108l1.76039,1.19574c0.87466,0.64215 1.42824,1.43931 1.67182,2.46897c0.155,0.39858 0.2325,0.79716 0.2325,1.28431c0,0.55358 -0.155,1.19574 -0.47608,1.82682c-0.87466,1.83789 -1.74932,3.58721 -2.62398,5.18153c0,0.24358 0,0.32108 0.0775,0.39858c0.0775,0.16607 0.2325,0.24358 0.39858,0.24358h0.32108c1.74932,0 3.34363,0.63108 4.78295,1.99289c1.35074,1.35074 1.99289,2.94506 1.99289,4.78295v19.53037c0,1.82682 -0.64215,3.42114 -1.99289,4.78295c-1.36181,1.27324 -2.95613,1.91539 -4.78295,1.91539h-17.30497c-1.82682,0 -3.42114,-0.64215 -4.78295,-1.91539c-1.35074,-1.43931 -1.99289,-3.03363 -1.99289,-4.78295v-19.13179c0,-0.39858 -0.155,-0.71966 -0.47608,-0.87466c-0.95216,-0.88573 -1.59432,-1.99289 -1.83789,-3.35471c-0.0775,-0.2325 -0.0775,-0.63108 -0.0775,-1.02966c0,-1.04073 0.24358,-1.91539 0.79716,-2.79005zM273.29265,154.5882c0.71966,-0.79716 1.51681,-1.19574 2.39147,-1.28431c0.0775,-0.0775 0.2325,-0.0775 0.47608,-0.0775c0.71966,0 1.43931,0.24358 2.0704,0.71966c0.71966,0.55358 1.19574,1.35074 1.36181,2.39147c0.31001,3.74221 0.47608,6.53227 0.47608,8.52516v0.08857c0,1.10716 -0.32108,1.99289 -0.96323,2.70148c-0.70858,0.88573 -1.59432,1.36181 -2.79005,1.51681h-0.39858c-0.87466,0 -1.50574,-0.2325 -2.0704,-0.79716c-0.63108,-0.63108 -0.95216,-1.42824 -0.95216,-2.39147v-1.35074l-0.32108,-7.73907c0,-0.87466 0.24358,-1.59432 0.71966,-2.3029zM273.29265,141.5126h1.11824c0.55358,0 0.79716,-0.24358 0.79716,-0.79716v-1.67182c0,-0.56465 -0.24358,-0.79716 -0.79716,-0.79716h-1.11824c-0.47608,0 -0.71966,0.2325 -0.71966,0.79716v1.67182c0,0.55358 0.24358,0.79716 0.71966,0.79716zM273.29265,129.87631h1.11824c0.55358,0 0.79716,-0.24358 0.79716,-0.79716v-1.68289c0,-0.47608 -0.24358,-0.70858 -0.79716,-0.70858h-1.11824c-0.47608,0 -0.71966,0.2325 -0.71966,0.70858v1.68289c0,0.55358 0.24358,0.79716 0.71966,0.79716zM280.86564,154.5882c0.55358,-0.71966 1.19574,-1.19574 2.0704,-1.36181l0.64215,-0.0775c0.79716,0 1.42824,0.155 1.99289,0.55358c0.79716,0.48715 1.35074,1.19574 1.59432,2.08147c0.70858,2.62398 1.27324,5.25903 1.67182,8.04908v0.47608c0,0.71966 -0.24358,1.51681 -0.71966,2.23647c-0.64215,0.79716 -1.43931,1.27324 -2.46897,1.42824l-0.64215,0.0775c-0.71966,0 -1.35074,-0.2325 -1.91539,-0.63108c-0.70858,-0.56465 -1.10716,-1.27324 -1.19574,-2.31397c-0.31001,-2.71255 -0.79716,-5.4251 -1.42824,-8.04908l-0.16607,-0.79716c0,-0.47608 0.16607,-1.04073 0.56465,-1.67182zM283.48963,141.5126h1.36181c0.55358,0 0.79716,-0.24358 0.79716,-0.79716v-1.67182c0,-0.56465 -0.24358,-0.79716 -0.79716,-0.79716h-1.36181c-0.47608,0 -0.70858,0.2325 -0.70858,0.79716v1.67182c0,0.55358 0.2325,0.79716 0.70858,0.79716zM283.48963,129.87631h1.36181c0.55358,0 0.79716,-0.24358 0.79716,-0.79716v-1.68289c0,-0.47608 -0.24358,-0.70858 -0.79716,-0.70858h-1.36181c-0.47608,0 -0.70858,0.2325 -0.70858,0.70858v1.68289c0,0.55358 0.2325,0.79716 0.70858,0.79716zM288.51615,154.26712c0.32108,-0.79716 0.95216,-1.36181 1.83789,-1.67182c0.39858,-0.16607 0.87466,-0.24358 1.35074,-0.24358c0.39858,0 0.87466,0.155 1.43931,0.39858c0.87466,0.32108 1.59432,0.95216 1.99289,1.91539c1.02966,2.54648 1.90432,5.18153 2.62398,7.89408c0.0775,0.2325 0.0775,0.55358 0.0775,1.02966c0,0.56465 -0.155,1.19574 -0.47608,1.83789c-0.47608,0.95216 -1.27324,1.59432 -2.31397,1.91539c-0.39858,0.155 -0.70858,0.2325 -1.10716,0.2325c-0.48715,0 -0.96323,-0.155 -1.51681,-0.39858c-0.79716,-0.55358 -1.36181,-1.27324 -1.59432,-2.2254c-0.71966,-2.95613 -1.51681,-5.5801 -2.46897,-7.97158l-0.16607,-1.28431c0,-0.55358 0.0775,-1.02966 0.32108,-1.42824zM297.12989,123.57655c0.79716,-0.79716 1.74932,-1.19574 2.79005,-1.19574h9.6434c0.47608,0 0.71966,-0.24358 0.71966,-0.79716v-0.32108c0,-0.47608 -0.24358,-0.71966 -0.71966,-0.71966h-6.37726c-1.04073,0 -1.99289,-0.39858 -2.79005,-1.19574c-0.71966,-0.71966 -1.11824,-1.59432 -1.11824,-2.71255c0,-1.10716 0.39858,-1.99289 1.11824,-2.70148c0.79716,-0.79716 1.74932,-1.19574 2.79005,-1.19574h6.37726c0.47608,0 0.71966,-0.24358 0.71966,-0.79716v-0.24358c0,-0.55358 -0.24358,-0.79716 -0.71966,-0.79716h-8.21515c-1.11824,0 -2.0704,-0.39858 -2.86755,-1.19574c-0.79716,-0.79716 -1.19574,-1.74932 -1.19574,-2.86755c0,-1.19574 0.39858,-2.0704 1.19574,-2.79005c0.79716,-0.79716 1.74932,-1.19574 2.86755,-1.19574h8.29266c0.39858,0 0.64215,-0.16607 0.64215,-0.56465c0,-1.35074 0.47608,-2.54648 1.42824,-3.49864c0.96323,-0.96323 2.15897,-1.43931 3.50971,-1.43931h1.11824c1.35074,0 2.54648,0.47608 3.50971,1.43931c0.95216,0.95216 1.42824,2.1479 1.42824,3.49864c0,0.39858 0.16607,0.56465 0.56465,0.56465h8.37016c1.19574,0 2.1479,0.39858 2.86755,1.19574c0.79716,0.71966 1.19574,1.59432 1.19574,2.79005c0,1.11824 -0.39858,2.0704 -1.19574,2.86755c-0.71966,0.79716 -1.67182,1.19574 -2.86755,1.19574h-8.13765c-0.55358,0 -0.79716,0.24358 -0.79716,0.79716v0.24358c0,0.55358 0.24358,0.79716 0.79716,0.79716h7.09692c1.04073,0 1.99289,0.39858 2.79005,1.19574c0.71966,0.70858 1.11824,1.59432 1.11824,2.70148c0,1.11824 -0.39858,1.99289 -1.11824,2.71255c-0.79716,0.79716 -1.74932,1.19574 -2.79005,1.19574h-7.09692c-0.55358,0 -0.79716,0.24358 -0.79716,0.71966v0.32108c0,0.55358 0.24358,0.79716 0.79716,0.79716h9.73197c1.02966,0 1.99289,0.39858 2.79005,1.19574c0.79716,0.71966 1.19574,1.59432 1.19574,2.79005c0,1.11824 -0.39858,2.0704 -1.19574,2.86755c-0.79716,0.79716 -1.76039,1.19574 -2.79005,1.19574h-31.88631c-1.04073,0 -1.99289,-0.39858 -2.79005,-1.19574c-0.79716,-0.79716 -1.19574,-1.74932 -1.19574,-2.86755c0,-1.19574 0.39858,-2.0704 1.19574,-2.79005zM299.03421,139.04362c0,-1.83789 0.64215,-3.43221 1.99289,-4.78295c1.28431,-1.36181 2.87863,-1.99289 4.78295,-1.99289h20.32752c1.91539,0 3.50971,0.63108 4.87152,1.99289c1.27324,1.35074 1.90432,2.94506 1.90432,4.78295v23.91473c0,2.3029 -0.2325,4.06329 -0.70858,5.33653c-0.56465,1.35074 -1.51681,2.31397 -2.87863,3.03363c-1.50574,0.79716 -3.49864,1.27324 -5.97868,1.50574h-0.39858c-1.10716,0 -2.2254,-0.39858 -3.26613,-1.19574c-1.02966,-0.87466 -1.82682,-1.99289 -2.31397,-3.34363l-0.155,-1.11824c0,-0.71966 0.155,-1.35074 0.55358,-1.91539c0.64215,-0.87466 1.51681,-1.35074 2.63505,-1.35074h0.87466c0.79716,0 1.19574,-0.39858 1.19574,-1.11824v-5.73511c0,-0.56465 -0.2325,-0.79716 -0.79716,-0.79716h-11.71379c-0.47608,0 -0.71966,0.2325 -0.71966,0.79716v10.68413c0,1.35074 -0.47608,2.54648 -1.51681,3.58721c-0.95216,1.02966 -2.1479,1.50574 -3.58721,1.50574c-1.42824,0 -2.62398,-0.47608 -3.58721,-1.50574c-1.02966,-0.96323 -1.51681,-2.15897 -1.51681,-3.58721zM309.96191,147.49129h1.02966c0.56465,0 0.79716,-0.24358 0.79716,-0.71966v-5.73511c0,-0.48715 -0.2325,-0.71966 -0.79716,-0.71966h-1.02966c-0.47608,0 -0.71966,0.2325 -0.71966,0.71966v5.73511c0,0.47608 0.24358,0.71966 0.71966,0.71966zM320.47997,147.49129h1.19574c0.56465,0 0.79716,-0.24358 0.79716,-0.71966v-5.73511c0,-0.48715 -0.2325,-0.71966 -0.79716,-0.71966h-1.19574c-0.55358,0 -0.79716,0.2325 -0.79716,0.71966v5.73511c0,0.47608 0.24358,0.71966 0.79716,0.71966z" fill="#004aad" stroke="#ffffff" stroke-width="14.5"/><path d="M167.59173,190.44923c0,-1.83789 0.87466,-2.71255 2.70148,-2.71255c1.83789,0 2.79005,0.87466 2.79005,2.71255v6.05619c0,1.83789 -0.87466,2.71255 -2.70148,2.71255c-1.83789,0 -2.79005,-0.87466 -2.79005,-2.71255zM132.2732,220.49765c4.53937,-4.06329 8.29266,-10.28555 11.08271,-18.73321c1.11824,-3.98579 3.90829,-5.5801 8.29266,-4.78295c3.66471,1.04073 4.86045,3.66471 3.58721,7.81658h14.10526c9.48839,0 13.47418,5.18153 11.95737,15.46708c-1.51681,9.8759 -6.53227,21.43469 -13.1531,28.05553c-6.45476,6.37726 -13.30811,10.20805 -22.56399,13.70669c-3.74221,1.43931 -6.53227,0.39858 -8.28158,-3.18863c-1.11824,-4.06329 0,-6.77584 3.42114,-8.12658c3.58721,-0.95216 7.418,-2.86755 11.48129,-5.65761c8.12658,-5.65761 14.90242,-14.34884 16.09816,-24.15831c0.39858,-2.79005 -0.87466,-4.21829 -3.66471,-4.21829h-14.27134c-3.10006,5.01545 -6.13369,8.92374 -9.24482,11.86879c-3.11113,2.95613 -6.13369,3.43221 -8.92374,1.28431c-2.63505,-3.50971 -2.55755,-6.62084 0.0775,-9.33339zM176.1944,190.44923c0,-1.83789 0.87466,-2.71255 2.71255,-2.71255c1.83789,0 2.79005,0.87466 2.79005,2.71255v6.05619c0,1.83789 -0.87466,2.71255 -2.71255,2.71255c-1.82682,0 -2.79005,-0.87466 -2.79005,-2.71255z" fill="#004aad" stroke="#ffffff" stroke-width="14.5"/><path d="M231.36436,258.52872c-7.66157,3.34363 -14.43741,-1.11824 -14.59242,-9.25589v-44.31976c0,-4.06329 1.99289,-6.05619 6.05619,-6.05619c4.06329,0 6.05619,1.99289 6.05619,6.05619v37.23391c0.08857,1.67182 0.96323,2.1479 2.71255,1.42824c0.56465,-0.155 2.15897,-1.11824 4.86045,-2.94506c2.79005,-2.15897 5.3476,-2.15897 7.66157,0c1.74932,3.11113 1.42824,5.97868 -0.96323,8.60266c-3.02256,3.58721 -6.93084,6.69834 -11.79129,9.25589zM197.96124,222.41305v-16.66281c0,-3.98579 1.99289,-5.97868 5.97868,-5.97868c4.06329,0 6.05619,1.99289 6.05619,5.97868v16.66281c-0.0775,13.95026 -2.1479,25.66405 -6.05619,35.15245c-1.67182,3.50971 -4.46187,4.70545 -8.29266,3.50971c-3.66471,-1.35074 -4.70545,-3.90829 -3.18863,-7.6505c3.90829,-12.12344 5.5026,-20.25002 5.5026,-31.01165z" fill="#004aad" stroke="#ffffff" stroke-width="14.5"/><path d="M252.79905,232.6211c0,-4.15186 2.08147,-6.22226 6.22226,-6.22226h24.39081c4.15186,0 6.22226,2.0704 6.22226,6.22226c0,4.21829 -2.0704,6.28869 -6.22226,6.28869h-24.39081c-4.14079,0 -6.22226,-2.0704 -6.22226,-6.21119z" fill="#004aad" stroke="#ffffff" stroke-width="14.5"/><path d="M304.70288,200.09263h29.00769c-1.10716,-1.51681 -1.67182,-3.18863 -1.67182,-5.10402c0,-2.39147 0.87466,-4.46187 2.63505,-6.29976c1.67182,-1.67182 3.74221,-2.54648 6.21119,-2.54648c4.87152,0 8.85731,3.98579 8.85731,8.84624c0,3.83079 -2.48005,7.01942 -5.82368,8.21515c2.23647,2.31397 3.34363,5.81261 3.26613,10.51805c-0.63108,12.75452 -5.33653,24.71189 -12.03487,32.12989c-6.69834,7.573 -12.67702,11.08271 -26.06263,14.58134c-3.58721,0.79716 -5.90118,-0.87466 -7.01942,-5.09295c-0.39858,-4.22937 1.35074,-6.62084 5.10402,-7.34049c6.77584,-1.59432 12.11237,-3.98579 15.86565,-7.09692c7.00835,-5.97868 10.91663,-15.146 11.63629,-23.82616c0.32108,-2.95613 -1.11824,-4.30687 -4.22937,-4.22937h-25.74155c-4.22937,0 -6.37726,-2.1479 -6.37726,-6.37726c0,-4.22937 2.1479,-6.37726 6.37726,-6.37726zM338.98067,198.42081c2.54648,1.27324 5.89011,-0.24358 5.89011,-3.43221c0,-1.67182 -0.63108,-2.79005 -1.99289,-3.50971c-2.62398,-1.27324 -5.89011,0.08857 -5.89011,3.50971c0,1.67182 0.63108,2.79005 1.99289,3.43221z" fill="#004aad" stroke="#ffffff" stroke-width="14.5"/><path d="M266.16667,150.77083v-42h60.33333v42z" fill="#ffffff" stroke="none" stroke-width="0"/><path d="M142.48126,119.82327l0.0775,-6.28869c0,-4.30687 2.0704,-6.46584 6.21119,-6.37726c4.30687,-0.08857 6.29976,1.99289 5.97868,6.37726c0.08857,1.02966 0,2.94506 -0.155,5.73511h6.05619c7.97158,0 12.20094,5.10402 13.0756,16.18673c0.87466,9.47732 0.55358,17.61497 -0.87466,24.22474c-1.76039,8.06015 -5.65761,12.12344 -11.80236,12.35595c-1.74932,-0.0775 -3.42114,-0.2325 -4.93795,-0.47608c-3.66471,-0.79716 -5.18153,-3.11113 -4.46187,-7.00835c0.70858,-3.50971 2.39147,-5.18153 5.09295,-5.10402c0.71966,0.0775 1.51681,0.155 2.39147,0.0775c1.99289,-0.24358 3.11113,-2.39147 3.43221,-6.53227c0.32108,-4.15186 0.24358,-9.73197 -0.155,-16.74031c0,-3.83079 -1.04073,-4.62794 -5.10402,-4.87152l-3.43221,0.16607c-1.27324,13.38561 -4.78295,27.57945 -7.97158,36.19318c-1.19574,3.10006 -3.74221,4.14079 -7.6505,3.18863c-3.43221,-1.36181 -4.62794,-3.58721 -3.50971,-6.69834c0.87466,-1.51681 2.0704,-5.3476 3.66471,-11.40379c1.59432,-6.05619 2.79005,-12.90953 3.50971,-20.48253c-1.67182,0.2325 -2.86755,0.39858 -3.58721,0.55358c-3.26613,0.56465 -5.01545,-1.42824 -5.18153,-5.97868c0.24358,-3.90829 1.76039,-5.97868 4.70545,-6.29976zM174.27901,109.06164c3.2772,-0.70858 5.66868,0.24358 7.01942,2.87863c3.90829,7.97158 6.45476,15.85458 7.6505,23.59366c0.71966,3.18863 -0.79716,5.18153 -4.46187,6.05619c-3.66471,0.64215 -5.82368,-0.71966 -6.37726,-4.14079c-1.35074,-8.21515 -3.66471,-15.78815 -7.01942,-22.6415c-1.02966,-2.55755 0.08857,-4.46187 3.18863,-5.74618z" fill="#004aad" stroke="none" stroke-width="1"/><path d="M206.16531,108.75163c3.75328,0.2325 5.5026,2.2254 5.4251,5.97868c0,3.10006 -0.0775,8.44766 -0.32108,16.09816c-0.0775,2.63505 -0.2325,6.69834 -0.32108,12.35595c0,4.22937 0.24358,7.573 0.64215,10.20805c0.39858,2.62398 1.19574,3.98579 2.54648,4.14079c1.51681,-0.0775 2.87863,-0.39858 4.22937,-0.95216c2.79005,-1.83789 5.10402,-1.04073 6.93084,2.2254c1.04073,3.66471 -0.0775,6.45476 -3.26613,8.37016c-2.1479,1.91539 -3.74221,2.46897 -8.92374,3.11113c-9.16731,0.71966 -13.71776,-7.32942 -13.71776,-24.15831c0,-16.49674 0.16607,-26.93729 0.56465,-31.39916c0.2325,-3.98579 2.31397,-5.97868 6.21119,-5.97868zM239.33594,109.38271c3.58721,0.0775 5.65761,1.99289 6.37726,5.74618c2.94506,10.44055 5.01545,25.74155 4.69437,42.64794c0,4.38437 -1.99289,6.53227 -5.97868,6.53227c-3.89722,0 -5.81261,-1.83789 -5.73511,-5.5801c0.55358,-16.81782 -0.87466,-26.1512 -3.43221,-38.58465l-1.02966,-5.01545c-0.79716,-3.75328 0.87466,-5.66868 5.10402,-5.74618z" fill="#004aad" stroke="none" stroke-width="1"/><path d="M278.62917,113.446c-0.0775,-0.155 -0.2325,-0.2325 -0.47608,-0.2325h-2.31397c-0.55358,0 -0.87466,0.2325 -1.02966,0.79716l-1.36181,2.94506c-0.0775,0.16607 -0.0775,0.32108 0,0.39858c0.16607,0.16607 0.32108,0.24358 0.47608,0.24358h2.39147c0.56465,0 0.96323,-0.24358 1.11824,-0.64215l1.27324,-2.94506c0,-0.24358 0,-0.47608 -0.0775,-0.56465zM261.33529,165.50484c1.02966,-2.54648 1.82682,-5.5801 2.31397,-9.08981c0.155,-1.02966 0.63108,-1.91539 1.50574,-2.54648c0.56465,-0.39858 1.19574,-0.56465 1.91539,-0.56465c0.39858,0 0.71966,0 0.87466,0.08857c1.19574,0.39858 2.15897,0.95216 2.71255,1.82682c0.56465,0.71966 0.79716,1.51681 0.79716,2.39147c0,0.32108 0,0.56465 -0.0775,0.64215c-0.64215,4.86045 -1.51681,8.69123 -2.71255,11.39271c-0.47608,1.04073 -1.27324,1.68289 -2.39147,1.99289l-1.19574,0.16607c-0.71966,0 -1.35074,-0.24358 -2.0704,-0.64215c-1.04073,-0.47608 -1.67182,-1.27324 -1.91539,-2.46897c-0.155,-0.39858 -0.2325,-0.79716 -0.2325,-1.27324c0,-0.64215 0.155,-1.27324 0.47608,-1.91539zM262.28745,116.72321c2.46897,-4.22937 4.46187,-9.01231 5.90118,-14.43741c0.39858,-1.42824 1.19574,-2.54648 2.31397,-3.26613c1.02966,-0.71966 2.0704,-1.02966 3.02256,-1.02966l0.79716,0.0775c1.36181,0.155 2.48005,0.79716 3.2772,1.99289c0.55358,0.71966 0.79716,1.51681 0.79716,2.46897l-0.16607,1.27324c0,0.0775 0,0.16607 -0.0775,0.24358c-0.0775,0.0775 0,0.155 0.0775,0.39858c0.0775,0.0775 0.16607,0.155 0.39858,0.155h4.55044c0.2325,0 0.31001,0 0.39858,-0.0775c0.55358,-0.0775 0.87466,-0.155 1.10716,-0.155c0.71966,0 1.36181,0.2325 1.91539,0.63108l1.76039,1.19574c0.87466,0.64215 1.42824,1.43931 1.67182,2.46897c0.155,0.39858 0.2325,0.79716 0.2325,1.28431c0,0.55358 -0.155,1.19574 -0.47608,1.82682c-0.87466,1.83789 -1.74932,3.58721 -2.62398,5.18153c0,0.24358 0,0.32108 0.0775,0.39858c0.0775,0.16607 0.2325,0.24358 0.39858,0.24358h0.32108c1.74932,0 3.34363,0.63108 4.78295,1.99289c1.35074,1.35074 1.99289,2.94506 1.99289,4.78295v19.53037c0,1.82682 -0.64215,3.42114 -1.99289,4.78295c-1.36181,1.27324 -2.95613,1.91539 -4.78295,1.91539h-17.30497c-1.82682,0 -3.42114,-0.64215 -4.78295,-1.91539c-1.35074,-1.43931 -1.99289,-3.03363 -1.99289,-4.78295v-19.13179c0,-0.39858 -0.155,-0.71966 -0.47608,-0.87466c-0.95216,-0.88573 -1.59432,-1.99289 -1.83789,-3.35471c-0.0775,-0.2325 -0.0775,-0.63108 -0.0775,-1.02966c0,-1.04073 0.24358,-1.91539 0.79716,-2.79005zM273.29265,154.5882c0.71966,-0.79716 1.51681,-1.19574 2.39147,-1.28431c0.0775,-0.0775 0.2325,-0.0775 0.47608,-0.0775c0.71966,0 1.43931,0.24358 2.0704,0.71966c0.71966,0.55358 1.19574,1.35074 1.36181,2.39147c0.31001,3.74221 0.47608,6.53227 0.47608,8.52516v0.08857c0,1.10716 -0.32108,1.99289 -0.96323,2.70148c-0.70858,0.88573 -1.59432,1.36181 -2.79005,1.51681h-0.39858c-0.87466,0 -1.50574,-0.2325 -2.0704,-0.79716c-0.63108,-0.63108 -0.95216,-1.42824 -0.95216,-2.39147v-1.35074l-0.32108,-7.73907c0,-0.87466 0.24358,-1.59432 0.71966,-2.3029zM273.29265,141.5126h1.11824c0.55358,0 0.79716,-0.24358 0.79716,-0.79716v-1.67182c0,-0.56465 -0.24358,-0.79716 -0.79716,-0.79716h-1.11824c-0.47608,0 -0.71966,0.2325 -0.71966,0.79716v1.67182c0,0.55358 0.24358,0.79716 0.71966,0.79716zM273.29265,129.87631h1.11824c0.55358,0 0.79716,-0.24358 0.79716,-0.79716v-1.68289c0,-0.47608 -0.24358,-0.70858 -0.79716,-0.70858h-1.11824c-0.47608,0 -0.71966,0.2325 -0.71966,0.70858v1.68289c0,0.55358 0.24358,0.79716 0.71966,0.79716zM280.86564,154.5882c0.55358,-0.71966 1.19574,-1.19574 2.0704,-1.36181l0.64215,-0.0775c0.79716,0 1.42824,0.155 1.99289,0.55358c0.79716,0.48715 1.35074,1.19574 1.59432,2.08147c0.70858,2.62398 1.27324,5.25903 1.67182,8.04908v0.47608c0,0.71966 -0.24358,1.51681 -0.71966,2.23647c-0.64215,0.79716 -1.43931,1.27324 -2.46897,1.42824l-0.64215,0.0775c-0.71966,0 -1.35074,-0.2325 -1.91539,-0.63108c-0.70858,-0.56465 -1.10716,-1.27324 -1.19574,-2.31397c-0.31001,-2.71255 -0.79716,-5.4251 -1.42824,-8.04908l-0.16607,-0.79716c0,-0.47608 0.16607,-1.04073 0.56465,-1.67182zM283.48963,141.5126h1.36181c0.55358,0 0.79716,-0.24358 0.79716,-0.79716v-1.67182c0,-0.56465 -0.24358,-0.79716 -0.79716,-0.79716h-1.36181c-0.47608,0 -0.70858,0.2325 -0.70858,0.79716v1.67182c0,0.55358 0.2325,0.79716 0.70858,0.79716zM283.48963,129.87631h1.36181c0.55358,0 0.79716,-0.24358 0.79716,-0.79716v-1.68289c0,-0.47608 -0.24358,-0.70858 -0.79716,-0.70858h-1.36181c-0.47608,0 -0.70858,0.2325 -0.70858,0.70858v1.68289c0,0.55358 0.2325,0.79716 0.70858,0.79716zM288.51615,154.26712c0.32108,-0.79716 0.95216,-1.36181 1.83789,-1.67182c0.39858,-0.16607 0.87466,-0.24358 1.35074,-0.24358c0.39858,0 0.87466,0.155 1.43931,0.39858c0.87466,0.32108 1.59432,0.95216 1.99289,1.91539c1.02966,2.54648 1.90432,5.18153 2.62398,7.89408c0.0775,0.2325 0.0775,0.55358 0.0775,1.02966c0,0.56465 -0.155,1.19574 -0.47608,1.83789c-0.47608,0.95216 -1.27324,1.59432 -2.31397,1.91539c-0.39858,0.155 -0.70858,0.2325 -1.10716,0.2325c-0.48715,0 -0.96323,-0.155 -1.51681,-0.39858c-0.79716,-0.55358 -1.36181,-1.27324 -1.59432,-2.2254c-0.71966,-2.95613 -1.51681,-5.5801 -2.46897,-7.97158l-0.16607,-1.28431c0,-0.55358 0.0775,-1.02966 0.32108,-1.42824zM297.12989,123.57655c0.79716,-0.79716 1.74932,-1.19574 2.79005,-1.19574h9.6434c0.47608,0 0.71966,-0.24358 0.71966,-0.79716v-0.32108c0,-0.47608 -0.24358,-0.71966 -0.71966,-0.71966h-6.37726c-1.04073,0 -1.99289,-0.39858 -2.79005,-1.19574c-0.71966,-0.71966 -1.11824,-1.59432 -1.11824,-2.71255c0,-1.10716 0.39858,-1.99289 1.11824,-2.70148c0.79716,-0.79716 1.74932,-1.19574 2.79005,-1.19574h6.37726c0.47608,0 0.71966,-0.24358 0.71966,-0.79716v-0.24358c0,-0.55358 -0.24358,-0.79716 -0.71966,-0.79716h-8.21515c-1.11824,0 -2.0704,-0.39858 -2.86755,-1.19574c-0.79716,-0.79716 -1.19574,-1.74932 -1.19574,-2.86755c0,-1.19574 0.39858,-2.0704 1.19574,-2.79005c0.79716,-0.79716 1.74932,-1.19574 2.86755,-1.19574h8.29266c0.39858,0 0.64215,-0.16607 0.64215,-0.56465c0,-1.35074 0.47608,-2.54648 1.42824,-3.49864c0.96323,-0.96323 2.15897,-1.43931 3.50971,-1.43931h1.11824c1.35074,0 2.54648,0.47608 3.50971,1.43931c0.95216,0.95216 1.42824,2.1479 1.42824,3.49864c0,0.39858 0.16607,0.56465 0.56465,0.56465h8.37016c1.19574,0 2.1479,0.39858 2.86755,1.19574c0.79716,0.71966 1.19574,1.59432 1.19574,2.79005c0,1.11824 -0.39858,2.0704 -1.19574,2.86755c-0.71966,0.79716 -1.67182,1.19574 -2.86755,1.19574h-8.13765c-0.55358,0 -0.79716,0.24358 -0.79716,0.79716v0.24358c0,0.55358 0.24358,0.79716 0.79716,0.79716h7.09692c1.04073,0 1.99289,0.39858 2.79005,1.19574c0.71966,0.70858 1.11824,1.59432 1.11824,2.70148c0,1.11824 -0.39858,1.99289 -1.11824,2.71255c-0.79716,0.79716 -1.74932,1.19574 -2.79005,1.19574h-7.09692c-0.55358,0 -0.79716,0.24358 -0.79716,0.71966v0.32108c0,0.55358 0.24358,0.79716 0.79716,0.79716h9.73197c1.02966,0 1.99289,0.39858 2.79005,1.19574c0.79716,0.71966 1.19574,1.59432 1.19574,2.79005c0,1.11824 -0.39858,2.0704 -1.19574,2.86755c-0.79716,0.79716 -1.76039,1.19574 -2.79005,1.19574h-31.88631c-1.04073,0 -1.99289,-0.39858 -2.79005,-1.19574c-0.79716,-0.79716 -1.19574,-1.74932 -1.19574,-2.86755c0,-1.19574 0.39858,-2.0704 1.19574,-2.79005zM299.03421,139.04362c0,-1.83789 0.64215,-3.43221 1.99289,-4.78295c1.28431,-1.36181 2.87863,-1.99289 4.78295,-1.99289h20.32752c1.91539,0 3.50971,0.63108 4.87152,1.99289c1.27324,1.35074 1.90432,2.94506 1.90432,4.78295v23.91473c0,2.3029 -0.2325,4.06329 -0.70858,5.33653c-0.56465,1.35074 -1.51681,2.31397 -2.87863,3.03363c-1.50574,0.79716 -3.49864,1.27324 -5.97868,1.50574h-0.39858c-1.10716,0 -2.2254,-0.39858 -3.26613,-1.19574c-1.02966,-0.87466 -1.82682,-1.99289 -2.31397,-3.34363l-0.155,-1.11824c0,-0.71966 0.155,-1.35074 0.55358,-1.91539c0.64215,-0.87466 1.51681,-1.35074 2.63505,-1.35074h0.87466c0.79716,0 1.19574,-0.39858 1.19574,-1.11824v-5.73511c0,-0.56465 -0.2325,-0.79716 -0.79716,-0.79716h-11.71379c-0.47608,0 -0.71966,0.2325 -0.71966,0.79716v10.68413c0,1.35074 -0.47608,2.54648 -1.51681,3.58721c-0.95216,1.02966 -2.1479,1.50574 -3.58721,1.50574c-1.42824,0 -2.62398,-0.47608 -3.58721,-1.50574c-1.02966,-0.96323 -1.51681,-2.15897 -1.51681,-3.58721zM309.96191,147.49129h1.02966c0.56465,0 0.79716,-0.24358 0.79716,-0.71966v-5.73511c0,-0.48715 -0.2325,-0.71966 -0.79716,-0.71966h-1.02966c-0.47608,0 -0.71966,0.2325 -0.71966,0.71966v5.73511c0,0.47608 0.24358,0.71966 0.71966,0.71966zM320.47997,147.49129h1.19574c0.56465,0 0.79716,-0.24358 0.79716,-0.71966v-5.73511c0,-0.48715 -0.2325,-0.71966 -0.79716,-0.71966h-1.19574c-0.55358,0 -0.79716,0.2325 -0.79716,0.71966v5.73511c0,0.47608 0.24358,0.71966 0.79716,0.71966z" fill="#004aad" stroke="none" stroke-width="1"/><path d="M167.59173,190.44923c0,-1.83789 0.87466,-2.71255 2.70148,-2.71255c1.83789,0 2.79005,0.87466 2.79005,2.71255v6.05619c0,1.83789 -0.87466,2.71255 -2.70148,2.71255c-1.83789,0 -2.79005,-0.87466 -2.79005,-2.71255zM132.2732,220.49765c4.53937,-4.06329 8.29266,-10.28555 11.08271,-18.73321c1.11824,-3.98579 3.90829,-5.5801 8.29266,-4.78295c3.66471,1.04073 4.86045,3.66471 3.58721,7.81658h14.10526c9.48839,0 13.47418,5.18153 11.95737,15.46708c-1.51681,9.8759 -6.53227,21.43469 -13.1531,28.05553c-6.45476,6.37726 -13.30811,10.20805 -22.56399,13.70669c-3.74221,1.43931 -6.53227,0.39858 -8.28158,-3.18863c-1.11824,-4.06329 0,-6.77584 3.42114,-8.12658c3.58721,-0.95216 7.418,-2.86755 11.48129,-5.65761c8.12658,-5.65761 14.90242,-14.34884 16.09816,-24.15831c0.39858,-2.79005 -0.87466,-4.21829 -3.66471,-4.21829h-14.27134c-3.10006,5.01545 -6.13369,8.92374 -9.24482,11.86879c-3.11113,2.95613 -6.13369,3.43221 -8.92374,1.28431c-2.63505,-3.50971 -2.55755,-6.62084 0.0775,-9.33339zM176.1944,190.44923c0,-1.83789 0.87466,-2.71255 2.71255,-2.71255c1.83789,0 2.79005,0.87466 2.79005,2.71255v6.05619c0,1.83789 -0.87466,2.71255 -2.71255,2.71255c-1.82682,0 -2.79005,-0.87466 -2.79005,-2.71255z" fill="#004aad" stroke="none" stroke-width="1"/><path d="M231.36436,258.52872c-7.66157,3.34363 -14.43741,-1.11824 -14.59242,-9.25589v-44.31976c0,-4.06329 1.99289,-6.05619 6.05619,-6.05619c4.06329,0 6.05619,1.99289 6.05619,6.05619v37.23391c0.08857,1.67182 0.96323,2.1479 2.71255,1.42824c0.56465,-0.155 2.15897,-1.11824 4.86045,-2.94506c2.79005,-2.15897 5.3476,-2.15897 7.66157,0c1.74932,3.11113 1.42824,5.97868 -0.96323,8.60266c-3.02256,3.58721 -6.93084,6.69834 -11.79129,9.25589zM197.96124,222.41305v-16.66281c0,-3.98579 1.99289,-5.97868 5.97868,-5.97868c4.06329,0 6.05619,1.99289 6.05619,5.97868v16.66281c-0.0775,13.95026 -2.1479,25.66405 -6.05619,35.15245c-1.67182,3.50971 -4.46187,4.70545 -8.29266,3.50971c-3.66471,-1.35074 -4.70545,-3.90829 -3.18863,-7.6505c3.90829,-12.12344 5.5026,-20.25002 5.5026,-31.01165z" fill="#004aad" stroke="none" stroke-width="1"/><path d="M252.79905,232.6211c0,-4.15186 2.08147,-6.22226 6.22226,-6.22226h24.39081c4.15186,0 6.22226,2.0704 6.22226,6.22226c0,4.21829 -2.0704,6.28869 -6.22226,6.28869h-24.39081c-4.14079,0 -6.22226,-2.0704 -6.22226,-6.21119z" fill="#004aad" stroke="none" stroke-width="1"/><path d="M304.70288,200.09263h29.00769c-1.10716,-1.51681 -1.67182,-3.18863 -1.67182,-5.10402c0,-2.39147 0.87466,-4.46187 2.63505,-6.29976c1.67182,-1.67182 3.74221,-2.54648 6.21119,-2.54648c4.87152,0 8.85731,3.98579 8.85731,8.84624c0,3.83079 -2.48005,7.01942 -5.82368,8.21515c2.23647,2.31397 3.34363,5.81261 3.26613,10.51805c-0.63108,12.75452 -5.33653,24.71189 -12.03487,32.12989c-6.69834,7.573 -12.67702,11.08271 -26.06263,14.58134c-3.58721,0.79716 -5.90118,-0.87466 -7.01942,-5.09295c-0.39858,-4.22937 1.35074,-6.62084 5.10402,-7.34049c6.77584,-1.59432 12.11237,-3.98579 15.86565,-7.09692c7.00835,-5.97868 10.91663,-15.146 11.63629,-23.82616c0.32108,-2.95613 -1.11824,-4.30687 -4.22937,-4.22937h-25.74155c-4.22937,0 -6.37726,-2.1479 -6.37726,-6.37726c0,-4.22937 2.1479,-6.37726 6.37726,-6.37726zM338.98067,198.42081c2.54648,1.27324 5.89011,-0.24358 5.89011,-3.43221c0,-1.67182 -0.63108,-2.79005 -1.99289,-3.50971c-2.62398,-1.27324 -5.89011,0.08857 -5.89011,3.50971c0,1.67182 0.63108,2.79005 1.99289,3.43221z" fill="#004aad" stroke="none" stroke-width="1"/></g></g></svg>